# xmcd
#
# Track frame offsets: 
#        150
#        19187
#        34307
#        51857
#        70085
#        94037
#        111695
#        139225
#        157012
#        178042
#        214159
#        232197
#        251840
#
# Disc length: 3525 seconds
#
# Revision: 1
# Processed by: cddbd v1.5.2PL0 Copyright (c) Steve Scherf et al.
# Submitted via: ExactAudioCopyFreeDBPlugin 1.0
#
DISCID=c70dc30d
DTITLE=All in one Day - Lorna Hunt
DYEAR=1999
DGENRE=Blues
TTITLE0=Long Hard Road
TTITLE1=Crazy Mary
TTITLE2=All In One Day
TTITLE3=Trying Not To Blink
TTITLE4=Piece Of My Heart
TTITLE5=Powered Diamonds
TTITLE6=Winter Time Cowboy
TTITLE7=Cut Glass Flowers
TTITLE8=Don't Forget Me
TTITLE9=Whipping Post
TTITLE10=How Long
TTITLE11=Love Sick
TTITLE12=She Rise
EXTD=
EXTT0=
EXTT1=
EXTT2=
EXTT3=
EXTT4=
EXTT5=
EXTT6=
EXTT7=
EXTT8=
EXTT9=
EXTT10=
EXTT11=
EXTT12=
PLAYORDER=
